<svg width="33" height="44" viewBox="0 0 33 44" fill="none" xmlns="http://www.w3.org/2000/svg">
<path fill-rule="evenodd" clip-rule="evenodd" d="M8.24913 0C6.06286 0 3.96391 0.917279 2.41676 2.54923C0.869615 4.18117 0 6.39517 0 8.70126V14.356C0 15.2069 0.653085 15.8958 1.45984 15.8958H8.94063C9.45402 15.8958 9.93248 15.6122 10.1944 15.1443L12.8766 10.4106C13.0233 10.149 13.2433 9.93903 13.5017 9.80641C13.7637 9.6738 14.0535 9.62591 14.3399 9.66643C14.6263 9.70695 14.8952 9.83589 15.1118 10.0385C15.3283 10.2374 15.4854 10.5027 15.5623 10.7974L17.4063 17.9256C17.7346 19.2002 19.3341 19.4765 20.0326 18.3751L21.1676 16.5847C21.3038 16.371 21.4854 16.1979 21.6985 16.08C21.9115 15.9584 22.149 15.8958 22.3935 15.8958H31.5402C32.3469 15.8958 33 15.2069 33 14.356V8.70126C33 6.39517 32.1304 4.18117 30.5832 2.54923C29.0361 0.917279 26.9371 0 24.7509 0H8.24913ZM7.96624 43.9999C9.461 44.011 10.6729 42.7216 10.6484 41.1449L10.5716 36.367C10.5646 35.5086 11.2212 34.8087 12.0314 34.8087H24.7474C26.9371 34.8087 29.0326 33.8914 30.5797 32.2595C32.1269 30.6275 32.9965 28.4136 32.9965 26.1075V20.5522C32.9965 19.7012 32.3434 19.0124 31.5367 19.0124H23.9581C23.4692 19.0124 23.0151 19.2702 22.7427 19.6976L18.901 25.7575C18.7439 26.0043 18.5239 26.1996 18.2619 26.3211C18.0035 26.439 17.7171 26.4795 17.4377 26.4316C17.1583 26.3837 16.8999 26.2511 16.6868 26.0522C16.4773 25.8533 16.3271 25.5917 16.2503 25.3044L14.5285 18.644C14.1898 17.3325 12.5239 17.0931 11.8638 18.2572C11.7311 18.4856 11.546 18.6771 11.326 18.8097C11.1059 18.9424 10.8545 19.0124 10.5995 19.0124H1.45984C0.653085 19.0124 0 19.7012 0 20.5522V41.2849C0 42.7548 1.12456 43.952 2.52154 43.9631L7.96624 43.9999Z" fill="url(#paint0_linear_6050_6726)"/>
<defs>
<linearGradient id="paint0_linear_6050_6726" x1="16.5" y1="7.3677e-05" x2="16.5" y2="31.1407" gradientUnits="userSpaceOnUse">
<stop stop-color="#857ED4"/>
<stop offset="1" stop-color="#484473"/>
</linearGradient>
</defs>
</svg>
