<svg width="524" height="301" viewBox="0 0 524 301" fill="none" xmlns="http://www.w3.org/2000/svg">
<g clip-path="url(#clip0_5570_3944)">
<path fill-rule="evenodd" clip-rule="evenodd" d="M243.998 105C239.228 105 234.649 106.876 231.273 110.214C227.897 113.552 226 118.081 226 122.798V134.364C226 136.105 227.425 137.514 229.185 137.514H245.507C246.627 137.514 247.671 136.934 248.242 135.977L254.094 126.294C254.414 125.759 254.894 125.33 255.458 125.059C256.03 124.787 256.662 124.689 257.287 124.772C257.912 124.855 258.499 125.119 258.971 125.533C259.444 125.94 259.786 126.483 259.954 127.086L263.977 141.666C264.694 144.273 268.184 144.838 269.707 142.585L272.184 138.923C272.481 138.486 272.877 138.132 273.342 137.891C273.807 137.642 274.325 137.514 274.858 137.514H294.815C296.575 137.514 298 136.105 298 134.364V122.798C298 118.081 296.103 113.552 292.727 110.214C289.351 106.876 284.772 105 280.002 105H243.998ZM243.381 195C246.642 195.022 249.286 192.385 249.233 189.16L249.065 179.387C249.05 177.631 250.483 176.2 252.25 176.2H279.994C284.772 176.2 289.344 174.323 292.719 170.985C296.095 167.647 297.992 163.119 297.992 158.402V147.039C297.992 145.298 296.567 143.889 294.807 143.889H278.272C277.205 143.889 276.215 144.416 275.62 145.29L267.239 157.686C266.896 158.191 266.416 158.59 265.844 158.839C265.28 159.08 264.656 159.163 264.046 159.065C263.436 158.967 262.872 158.695 262.408 158.289C261.95 157.882 261.623 157.347 261.455 156.759L257.699 143.135C256.959 140.453 253.325 139.963 251.885 142.344C251.595 142.811 251.191 143.203 250.711 143.474C250.231 143.746 249.683 143.889 249.126 143.889H229.185C227.425 143.889 226 145.298 226 147.039V189.446C226 192.453 228.454 194.902 231.502 194.925L243.381 195Z" fill="url(#paint0_linear_5570_3944)"/>
<path d="M-23.7443 71.8908C-10.4094 54.278 14.6787 50.81 32.2915 64.1449L144.707 149.256C162.319 162.591 165.787 187.679 152.452 205.291L67.3416 317.707C54.0067 335.319 28.9187 338.787 11.3059 325.452L-101.109 240.342C-118.722 227.007 -122.19 201.919 -108.855 184.306L-23.7443 71.8908Z" fill="url(#paint1_linear_5570_3944)"/>
<rect x="487.4" y="-40" width="221" height="221" rx="40" transform="rotate(37.1298 487.4 -40)" fill="url(#paint2_linear_5570_3944)"/>
</g>
<defs>
<linearGradient id="paint0_linear_5570_3944" x1="262" y1="105" x2="262" y2="168.697" gradientUnits="userSpaceOnUse">
<stop stop-color="#857ED4"/>
<stop offset="1" stop-color="#484473"/>
</linearGradient>
<linearGradient id="paint1_linear_5570_3944" x1="88.4987" y1="106.7" x2="-44.9019" y2="282.897" gradientUnits="userSpaceOnUse">
<stop stop-color="#494574"/>
<stop offset="0.76" stop-color="#8982DA"/>
</linearGradient>
<linearGradient id="paint2_linear_5570_3944" x1="597.9" y1="-40" x2="597.9" y2="181" gradientUnits="userSpaceOnUse">
<stop offset="0.295" stop-color="#494574"/>
<stop offset="1" stop-color="#8982DA"/>
</linearGradient>
<clipPath id="clip0_5570_3944">
<rect width="524" height="301" rx="10" fill="white"/>
</clipPath>
</defs>
</svg>
